<svg width="22" height="22" viewBox="0 0 22 22" fill="none" xmlns="http://www.w3.org/2000/svg">
<path opacity="0.4" d="M17.6366 5.11501H17.27L14.1716 2.01668C13.9241 1.76918 13.5208 1.76918 13.2641 2.01668C13.0166 2.26418 13.0166 2.66751 13.2641 2.92418L15.455 5.11501H6.54498L8.73581 2.92418C8.98331 2.67668 8.98331 2.27335 8.73581 2.01668C8.48831 1.76918 8.08498 1.76918 7.82831 2.01668L4.73915 5.11501H4.37248C3.54748 5.11501 1.83331 5.11501 1.83331 7.46168C1.83331 8.35085 2.01665 8.93751 2.40165 9.32251C2.62165 9.55168 2.88748 9.67085 3.17165 9.73501C3.43748 9.79918 3.72165 9.80835 3.99665 9.80835H18.0033C18.2875 9.80835 18.5533 9.79001 18.81 9.73501C19.58 9.55168 20.1666 9.00168 20.1666 7.46168C20.1666 5.11501 18.4525 5.11501 17.6366 5.11501Z" fill="#030504"/>
<path d="M18.0125 9.80833H3.99669C3.73086 9.80833 3.43753 9.79916 3.17169 9.72583L4.32669 16.775C4.58336 18.3517 5.27086 20.1667 8.32336 20.1667H13.4659C16.555 20.1667 17.105 18.6175 17.435 16.885L18.8192 9.72583C18.5625 9.79 18.2875 9.80833 18.0125 9.80833ZM11 16.9583C8.85503 16.9583 7.10419 15.2075 7.10419 13.0625C7.10419 12.6867 7.41586 12.375 7.79169 12.375C8.16752 12.375 8.47919 12.6867 8.47919 13.0625C8.47919 14.4558 9.60669 15.5833 11 15.5833C12.3934 15.5833 13.5209 14.4558 13.5209 13.0625C13.5209 12.6867 13.8325 12.375 14.2084 12.375C14.5842 12.375 14.8959 12.6867 14.8959 13.0625C14.8959 15.2075 13.145 16.9583 11 16.9583Z" fill="#030504"/>
</svg>
