
<svg width="40" height="40" viewBox="0 0 40 40" fill="none" xmlns="http://www.w3.org/2000/svg">
<rect x="0.5" y="0.5" width="39" height="39" rx="19.5" stroke="#E4E5E9"/>
<path opacity="0.4" d="M27.7092 15.3801V17.9834L15.7833 26.7284L13.3725 24.9226C12.7767 24.4734 12.2908 23.5109 12.2908 22.7684V15.3801C12.2908 14.3534 13.0792 13.2167 14.0417 12.8592L19.0558 10.9801C19.5783 10.7876 20.4217 10.7876 20.9442 10.9801L25.9583 12.8592C26.9208 13.2167 27.7092 14.3534 27.7092 15.3801Z" fill="#030504"/>
<path d="M27.7091 19.2393V22.7684C27.7091 23.5109 27.2233 24.4734 26.6275 24.9226L21.6133 28.6718C21.1733 29.0018 20.5866 29.1668 20 29.1668C19.4133 29.1668 18.8266 29.0018 18.3866 28.6718L16.6266 27.3609L27.7091 19.2393Z" fill="#030504"/>
</svg>
