<svg width="23" height="22" viewBox="0 0 23 22" fill="none" xmlns="http://www.w3.org/2000/svg">
<path d="M20.5 5.50001V7.71834C20.5 9.16668 19.5833 10.0833 18.135 10.0833H15V3.67584C15 2.65834 15.8342 1.83334 16.8517 1.83334C17.8508 1.84251 18.7675 2.24584 19.4275 2.90584C20.0875 3.57501 20.5 4.49168 20.5 5.50001Z" fill="white"/>
<path opacity="0.4" d="M2.16663 6.41668V19.25C2.16663 20.0108 3.0283 20.4417 3.6333 19.9833L5.20079 18.81C5.56746 18.535 6.0808 18.5717 6.4108 18.9017L7.93245 20.4325C8.28995 20.79 8.87663 20.79 9.23413 20.4325L10.7741 18.8925C11.095 18.5717 11.6083 18.535 11.9658 18.81L13.5333 19.9833C14.1383 20.4325 15 20.0017 15 19.25V3.66668C15 2.65834 15.825 1.83334 16.8333 1.83334H6.74996H5.83329C3.08329 1.83334 2.16663 3.47418 2.16663 5.50001V6.41668Z" fill="white"/>
<path d="M11.3333 8.9375H5.83331C5.45748 8.9375 5.14581 8.62583 5.14581 8.25C5.14581 7.87417 5.45748 7.5625 5.83331 7.5625H11.3333C11.7091 7.5625 12.0208 7.87417 12.0208 8.25C12.0208 8.62583 11.7091 8.9375 11.3333 8.9375Z" fill="white"/>
<path d="M10.6458 12.6042H6.52081C6.14498 12.6042 5.83331 12.2925 5.83331 11.9167C5.83331 11.5408 6.14498 11.2292 6.52081 11.2292H10.6458C11.0216 11.2292 11.3333 11.5408 11.3333 11.9167C11.3333 12.2925 11.0216 12.6042 10.6458 12.6042Z" fill="white"/>
</svg>
