<svg width="23" height="22" viewBox="0 0 23 22" fill="none" xmlns="http://www.w3.org/2000/svg">
<path opacity="0.4" d="M16.2499 8.25001C16.2499 11.7975 13.1699 14.6667 9.37494 14.6667L8.52245 15.6933L8.01828 16.2984C7.58744 16.8117 6.76244 16.7017 6.47827 16.0875L5.24994 13.3833C3.58161 12.21 2.49994 10.3492 2.49994 8.25001C2.49994 4.70251 5.57994 1.83334 9.37494 1.83334C12.1433 1.83334 14.5358 3.36418 15.6083 5.56418C16.0208 6.38002 16.2499 7.28751 16.2499 8.25001Z" fill="white"/>
<path d="M20.8333 11.7883C20.8333 13.8875 19.7516 15.7484 18.0833 16.9217L16.855 19.6258C16.5708 20.24 15.7458 20.3592 15.3149 19.8367L13.9583 18.205C11.74 18.205 9.75996 17.2242 8.52246 15.6933L9.37495 14.6667C13.17 14.6667 16.25 11.7975 16.25 8.25001C16.25 7.28751 16.0208 6.38001 15.6083 5.56418C18.6058 6.25168 20.8333 8.78166 20.8333 11.7883Z" fill="white"/>
<path d="M11.6666 8.9375H7.08331C6.70748 8.9375 6.39581 8.62583 6.39581 8.25C6.39581 7.87417 6.70748 7.5625 7.08331 7.5625H11.6666C12.0425 7.5625 12.3541 7.87417 12.3541 8.25C12.3541 8.62583 12.0425 8.9375 11.6666 8.9375Z" fill="white"/>
</svg>
