<svg width="32" height="32" viewBox="0 0 32 32" fill="none" xmlns="http://www.w3.org/2000/svg">
<path opacity="0.4" d="M14.3333 3.26667C15.2533 2.48 16.76 2.48 17.6933 3.26667L19.8 5.08C20.2 5.42667 20.9467 5.70667 21.48 5.70667H23.7467C25.16 5.70667 26.32 6.86667 26.32 8.28V10.5467C26.32 11.0667 26.6 11.8267 26.9467 12.2267L28.76 14.3333C29.5467 15.2533 29.5467 16.76 28.76 17.6933L26.9467 19.8C26.6 20.2 26.32 20.9467 26.32 21.48V23.7467C26.32 25.16 25.16 26.32 23.7467 26.32H21.48C20.96 26.32 20.2 26.6 19.8 26.9467L17.6933 28.76C16.7733 29.5467 15.2667 29.5467 14.3333 28.76L12.2267 26.9467C11.8267 26.6 11.08 26.32 10.5467 26.32H8.24001C6.82667 26.32 5.66667 25.16 5.66667 23.7467V21.4667C5.66667 20.9467 5.38667 20.2 5.05334 19.8L3.25334 17.68C2.48001 16.76 2.48001 15.2667 3.25334 14.3467L5.05334 12.2267C5.38667 11.8267 5.66667 11.08 5.66667 10.56V8.26667C5.66667 6.85333 6.82667 5.69333 8.24001 5.69333H10.5467C11.0667 5.69333 11.8267 5.41333 12.2267 5.06667L14.3333 3.26667Z" fill="#0CA024"/>
<path d="M14.3867 20.2267C14.12 20.2267 13.8667 20.12 13.68 19.9333L10.4533 16.7067C10.0667 16.32 10.0667 15.68 10.4533 15.2933C10.84 14.9067 11.48 14.9067 11.8667 15.2933L14.3867 17.8133L20.12 12.08C20.5067 11.6933 21.1467 11.6933 21.5333 12.08C21.92 12.4667 21.92 13.1067 21.5333 13.4933L15.0933 19.9333C14.9067 20.12 14.6533 20.2267 14.3867 20.2267Z" fill="#0CA024"/>
</svg>
