<svg width="32" height="32" viewBox="0 0 32 32" fill="none" xmlns="http://www.w3.org/2000/svg">
<path d="M9.33333 7.66666C8.78667 7.66666 8.33333 7.21332 8.33333 6.66666V2.66666C8.33333 2.11999 8.78667 1.66666 9.33333 1.66666C9.88 1.66666 10.3333 2.11999 10.3333 2.66666V6.66666C10.3333 7.21332 9.88 7.66666 9.33333 7.66666Z" fill="#D04B1E"/>
<path d="M20 7.66666C19.4533 7.66666 19 7.21332 19 6.66666V2.66666C19 2.11999 19.4533 1.66666 20 1.66666C20.5467 1.66666 21 2.11999 21 2.66666V6.66666C21 7.21332 20.5467 7.66666 20 7.66666Z" fill="#D04B1E"/>
<path opacity="0.4" d="M26.6667 11.3333V22.6667C26.6667 26.6667 24.6667 29.3333 20 29.3333H9.33333C4.66667 29.3333 2.66667 26.6667 2.66667 22.6667V11.3333C2.66667 7.33332 4.66667 4.66666 9.33333 4.66666H20C24.6667 4.66666 26.6667 7.33332 26.6667 11.3333Z" fill="#D04B1E"/>
<path d="M17.3333 15.6667H9.33333C8.78667 15.6667 8.33333 15.2133 8.33333 14.6667C8.33333 14.12 8.78667 13.6667 9.33333 13.6667H17.3333C17.88 13.6667 18.3333 14.12 18.3333 14.6667C18.3333 15.2133 17.88 15.6667 17.3333 15.6667Z" fill="#D04B1E"/>
<path d="M13.3333 22.3333H9.33333C8.78667 22.3333 8.33333 21.88 8.33333 21.3333C8.33333 20.7867 8.78667 20.3333 9.33333 20.3333H13.3333C13.88 20.3333 14.3333 20.7867 14.3333 21.3333C14.3333 21.88 13.88 22.3333 13.3333 22.3333Z" fill="#D04B1E"/>
<path d="M28 18.1733C26.8133 17.2267 25.3067 16.6667 23.6667 16.6667C22.0267 16.6667 20.4933 17.24 19.2933 18.2133C17.68 19.48 16.6667 21.4667 16.6667 23.6667C16.6667 24.9733 17.04 26.2267 17.68 27.2667C18.1733 28.08 18.8133 28.7867 19.5733 29.3333C20.72 30.1733 22.1333 30.6667 23.6667 30.6667C25.44 30.6667 27.04 30.0133 28.2667 28.92C28.8133 28.4667 29.28 27.9067 29.6533 27.2667C30.2933 26.2267 30.6667 24.9733 30.6667 23.6667C30.6667 21.44 29.6267 19.4533 28 18.1733ZM23.6667 27C23.6667 25.16 22.1733 23.6667 20.3333 23.6667C22.1733 23.6667 23.6667 22.1733 23.6667 20.3333C23.6667 22.1733 25.16 23.6667 27 23.6667C25.16 23.6667 23.6667 25.16 23.6667 27Z" fill="#D04B1E"/>
</svg>
