<svg width="32" height="32" viewBox="0 0 32 32" fill="none" xmlns="http://www.w3.org/2000/svg">
<rect width="32" height="32" rx="16" fill="#D04B1E"/>
<path d="M22.0467 11.4866C20.9733 11.38 19.9 11.3 18.82 11.24V11.2333L18.6733 10.3666C18.5733 9.75331 18.4267 8.83331 16.8667 8.83331H15.12C13.5667 8.83331 13.42 9.71331 13.3133 10.36L13.1733 11.2133C12.5533 11.2533 11.9333 11.2933 11.3133 11.3533L9.95334 11.4866C9.67334 11.5133 9.47334 11.76 9.5 12.0333C9.52667 12.3066 9.76667 12.5066 10.0467 12.48L11.4067 12.3466C14.9 12 18.42 12.1333 21.9533 12.4866C21.9733 12.4866 21.9867 12.4866 22.0067 12.4866C22.26 12.4866 22.48 12.2933 22.5067 12.0333C22.5267 11.76 22.3267 11.5133 22.0467 11.4866Z" fill="white"/>
<path opacity="0.3991" d="M20.82 13.4267C20.66 13.26 20.44 13.1667 20.2133 13.1667H11.7866C11.56 13.1667 11.3333 13.26 11.18 13.4267C11.0266 13.5934 10.94 13.82 10.9533 14.0534L11.3666 20.8934C11.44 21.9067 11.5333 23.1734 13.86 23.1734H18.14C20.4666 23.1734 20.56 21.9134 20.6333 20.8934L21.0466 14.06C21.06 13.82 20.9733 13.5934 20.82 13.4267Z" fill="white"/>
<path fill-rule="evenodd" clip-rule="evenodd" d="M14.3867 19.3333C14.3867 19.0572 14.6105 18.8333 14.8867 18.8333H17.1067C17.3828 18.8333 17.6067 19.0572 17.6067 19.3333C17.6067 19.6095 17.3828 19.8333 17.1067 19.8333H14.8867C14.6105 19.8333 14.3867 19.6095 14.3867 19.3333Z" fill="white"/>
<path fill-rule="evenodd" clip-rule="evenodd" d="M13.8333 16.6667C13.8333 16.3905 14.0572 16.1667 14.3333 16.1667H17.6666C17.9428 16.1667 18.1666 16.3905 18.1666 16.6667C18.1666 16.9428 17.9428 17.1667 17.6666 17.1667H14.3333C14.0572 17.1667 13.8333 16.9428 13.8333 16.6667Z" fill="white"/>
</svg>
