<svg width="16" height="16" viewBox="0 0 16 16" fill="none" xmlns="http://www.w3.org/2000/svg">
<path d="M14.0467 3.48665C12.9733 3.37998 11.9 3.29998 10.82 3.23998V3.23331L10.6733 2.36665C10.5733 1.75331 10.4267 0.833313 8.86667 0.833313H7.12C5.56667 0.833313 5.42 1.71331 5.31334 2.35998L5.17334 3.21331C4.55334 3.25331 3.93334 3.29331 3.31334 3.35331L1.95334 3.48665C1.67334 3.51331 1.47334 3.75998 1.5 4.03331C1.52667 4.30665 1.76667 4.50665 2.04667 4.47998L3.40667 4.34665C6.9 3.99998 10.42 4.13331 13.9533 4.48665C13.9733 4.48665 13.9867 4.48665 14.0067 4.48665C14.26 4.48665 14.48 4.29331 14.5067 4.03331C14.5267 3.75998 14.3267 3.51331 14.0467 3.48665Z" fill="white"/>
<path opacity="0.3991" d="M12.82 5.42669C12.66 5.26002 12.44 5.16669 12.2133 5.16669H3.78664C3.55998 5.16669 3.33331 5.26002 3.17998 5.42669C3.02664 5.59335 2.93998 5.82002 2.95331 6.05335L3.36664 12.8934C3.43998 13.9067 3.53331 15.1734 5.85998 15.1734H10.14C12.4666 15.1734 12.56 13.9134 12.6333 12.8934L13.0466 6.06002C13.06 5.82002 12.9733 5.59335 12.82 5.42669Z" fill="white"/>
<path fill-rule="evenodd" clip-rule="evenodd" d="M6.38666 11.3333C6.38666 11.0572 6.61052 10.8333 6.88666 10.8333H9.10666C9.3828 10.8333 9.60666 11.0572 9.60666 11.3333C9.60666 11.6095 9.3828 11.8333 9.10666 11.8333H6.88666C6.61052 11.8333 6.38666 11.6095 6.38666 11.3333Z" fill="white"/>
<path fill-rule="evenodd" clip-rule="evenodd" d="M5.83331 8.66669C5.83331 8.39054 6.05717 8.16669 6.33331 8.16669H9.66665C9.94279 8.16669 10.1666 8.39054 10.1666 8.66669C10.1666 8.94283 9.94279 9.16669 9.66665 9.16669H6.33331C6.05717 9.16669 5.83331 8.94283 5.83331 8.66669Z" fill="white"/>
</svg>
